<?xml version="1.0" encoding="utf-8"?>
<!-- Generator: Adobe Illustrator 16.0.2, SVG Export Plug-In . SVG Version: 6.00 Build 0)  -->
<!DOCTYPE svg PUBLIC "-//W3C//DTD SVG 1.1//EN" "http://www.w3.org/Graphics/SVG/1.1/DTD/svg11.dtd">
<svg version="1.1" id="Layer_1" xmlns="http://www.w3.org/2000/svg" xmlns:xlink="http://www.w3.org/1999/xlink" x="0px" y="0px"
	 width="153.336px" height="77.629px" viewBox="0 0 153.336 77.629" enable-background="new 0 0 153.336 77.629"
	 xml:space="preserve">
<g>
	<g>
		<path fill="#FFFFFF" d="M149.299,14.74c-2.895-3.191-6.836-4.95-11.102-4.95c-3.543,0-7.051,1.21-10.725,3.699
			c-1.424,0.966-2.791,2.064-4.082,3.208c-3.555-3.723-7.244-7.513-11.404-10.579C106.402,2.001,100.992,0,95.445,0
			C88.561,0,82.127,2.473,77.33,6.96c-4.967,4.647-7.701,11.02-7.701,17.941c0,6.921,2.734,13.294,7.701,17.941
			c4.797,4.487,11.23,6.959,18.115,6.959c5.535,0,10.939-2.018,16.52-6.17c4.172-3.104,7.879-6.947,11.449-10.717
			c4.258,3.747,9.121,6.837,14.783,6.837c4.238,0,8.152-1.67,11.02-4.706c2.619-2.77,4.119-6.468,4.119-10.145
			C153.336,21.275,151.863,17.573,149.299,14.74z M113.053,27.834c-1.619,1.679-9.477,10.465-16.576,10.465
			c-7.76,0-13.611-5.471-13.611-12.726c0-7.256,5.852-12.726,13.611-12.726c4.598,0,8.885,3.164,13.246,7.125
			c3.844,3.491,7.264,6.817,9.916,9.341l-0.172,0.157C117.346,28.016,114.779,26.043,113.053,27.834z M140.518,21.954
			c-0.125,2.033-2.154,4.61-5.549,4.402c-1.99-0.122-4.273-1.104-6.621-3.489c-1.156-1.173-2.248-2.479-3.301-3.679l0.045-0.04
			c4.643,4.169,6.924-2.124,10.938-1.91C139.342,17.412,140.633,20.098,140.518,21.954z"/>
		<g>
			<g>
				<path fill="#FFFFFF" d="M12.977,56.335c-0.949-0.164-1.637-0.984-1.637-1.948l0.002-7.639c-0.002-2.653-2.307-4.655-5.367-4.655
					c-2.924,0-5.045,1.496-5.045,3.558c0,0.751,0.625,1.363,1.391,1.363s1.389-0.619,1.389-1.381c0-1.401,1.031-2.545,2.301-2.545
					c1.498,0,2.545,1.039,2.545,2.523v0.773c0,1.261-1.506,1.902-3.104,2.58c-0.385,0.163-0.809,0.32-1.26,0.486
					c-0.709,0.265-1.447,0.537-2,0.832C0.738,51.057,0,52.157,0,53.549c0,2.39,2.227,3.932,5.672,3.932
					c1.865,0,3.371-0.489,4.369-1.422c0.795,0.717,1.816,1.134,2.896,1.176c0.152,0,0.279-0.127,0.279-0.284v-0.324
					C13.217,56.482,13.113,56.36,12.977,56.335z M5.672,56.507c-1.861,0-2.885-1.052-2.885-2.957c0-1.64,1.566-3.038,3.119-3.699
					c0.842-0.358,1.809-0.783,2.648-1.25v5.211C8.555,55.398,7.371,56.507,5.672,56.507z"/>
				<path fill="#FFFFFF" d="M23.504,46.498c0,0.754,0.621,1.367,1.387,1.367c0.381,0,0.734-0.147,1-0.416
					c0.252-0.254,0.391-0.586,0.391-0.937c0-0.005,0-0.01,0-0.015c0,0,0-0.006,0-0.011c-0.002-1.177-0.613-2.269-1.719-3.082
					c-1.055-0.774-2.49-1.218-3.938-1.218c-3.285,0-5.67,2.234-5.67,5.311v4.768c0,3.078,2.385,5.313,5.67,5.313
					c3.064,0,5.652-1.971,5.656-4.302v-0.01c0,0,0-0.01,0-0.014c0-0.351-0.139-0.684-0.391-0.936c-0.266-0.269-0.619-0.416-1-0.416
					c-0.766,0-1.387,0.613-1.387,1.369v0.049c0.008,0.67,0.006,0.857,0.002,0.896c-0.092,1.337-1.355,2.387-2.881,2.387
					c-1.807,0-2.883-1.308-2.883-3.494v-6.452c0-1.593,0.5-3.491,2.883-3.491c1.525,0,2.789,1.049,2.881,2.387
					c0.004,0.038,0.006,0.225-0.002,0.894V46.498z"/>
				<path fill="#FFFFFF" d="M39.463,42.149c-0.531,0-0.852,0.343-1.135,0.643c-0.238,0.255-0.445,0.475-0.738,0.475
					c-0.262,0-0.436-0.137-0.676-0.323c-0.445-0.347-1.057-0.824-2.691-0.824c-3.283,0-5.668,2.233-5.668,5.311v4.77
					c0,3.077,2.385,5.309,5.67,5.309c1.014,0,2.006-0.221,2.875-0.641v6.821c0,0.252,0.205,0.457,0.455,0.457h1.865
					c0.125,0,0.238-0.049,0.324-0.135s0.131-0.195,0.131-0.313l-0.029-21.093C39.846,42.268,39.641,42.149,39.463,42.149z
					 M31.34,46.589c0-2.188,1.078-3.494,2.883-3.494c1.504,0,2.768,1.032,2.877,2.341v8.746c-0.109,1.316-1.373,2.35-2.877,2.35
					c-2.383,0-2.883-1.899-2.883-3.491V46.589z"/>
				<path fill="#FFFFFF" d="M54.287,42.515h-1.881c-0.248,0-0.451,0.183-0.451,0.409v11.03c0,1.425-1.295,2.583-2.887,2.583H49.01
					l-0.457,0.001c-1.59-0.003-2.883-1.16-2.883-2.584v-11.03c0-0.227-0.205-0.409-0.451-0.409h-1.885
					c-0.248,0-0.449,0.183-0.449,0.409v9.977c0,2.539,2.543,4.604,5.67,4.604h0.514c3.127,0,5.67-2.065,5.67-4.604v-9.977
					C54.738,42.698,54.537,42.515,54.287,42.515z"/>
				<path fill="#FFFFFF" d="M69.68,56.335c-0.947-0.164-1.635-0.984-1.635-1.948l0.002-7.639c0-2.653-2.309-4.655-5.367-4.655
					c-2.922,0-5.045,1.496-5.045,3.558c0,0.751,0.625,1.363,1.389,1.363c0.766,0,1.391-0.619,1.391-1.381
					c0-1.401,1.033-2.545,2.301-2.545c1.498,0,2.545,1.039,2.545,2.523v0.773c0,1.261-1.506,1.902-3.104,2.58
					c-0.385,0.163-0.809,0.32-1.258,0.486c-0.711,0.265-1.449,0.537-2.002,0.832c-1.453,0.773-2.191,1.873-2.191,3.266
					c0,2.39,2.229,3.932,5.672,3.932c1.863,0,3.371-0.489,4.371-1.422c0.793,0.717,1.814,1.134,2.893,1.176
					c0.154,0,0.279-0.127,0.279-0.284v-0.324C69.92,56.482,69.82,56.36,69.68,56.335z M62.377,56.507
					c-1.861,0-2.885-1.052-2.885-2.957c0-1.64,1.566-3.038,3.119-3.699c0.844-0.358,1.807-0.783,2.648-1.25v5.211
					C65.26,55.398,64.074,56.507,62.377,56.507z"/>
			</g>
			<g>
				<path fill="#FFFFFF" d="M55.992,62.352c-1.484,0-2.902,0.545-3.906,1.5c-1.004-0.955-2.422-1.5-3.908-1.5
					c-2.918,0-5.293,2.066-5.293,4.607l0.021,9.941c0,0.252,0.205,0.455,0.455,0.455h1.844c0.252,0,0.457-0.203,0.457-0.455V65.943
					c0.004-0.012,0.006-0.029,0.006-0.041c0-1.426,1.127-2.59,2.51-2.59c1.391,0,2.52,1.164,2.52,2.59v11.043
					c0,0.227,0.203,0.41,0.453,0.41h1.881c0.25,0,0.453-0.184,0.453-0.41L53.48,65.914c0,0,0.002-0.006,0.002-0.012
					c0-1.426,1.125-2.59,2.51-2.59c1.395,0,2.525,1.164,2.525,2.598v11.027c0,0.227,0.203,0.408,0.453,0.408h1.881
					c0.25,0,0.451-0.182,0.451-0.408v-9.979C61.303,64.418,58.92,62.352,55.992,62.352z"/>
				<path fill="#FFFFFF" d="M76.914,76.459c-0.947-0.166-1.635-0.986-1.635-1.947l0.004-7.639c0-2.654-2.309-4.658-5.369-4.658
					c-2.922,0-5.043,1.5-5.043,3.557c0,0.754,0.623,1.367,1.389,1.367s1.389-0.621,1.389-1.383c0-1.402,1.033-2.545,2.303-2.545
					c1.498,0,2.545,1.039,2.545,2.525v0.773c0,1.26-1.508,1.9-3.104,2.578c-0.385,0.164-0.811,0.322-1.262,0.486
					c-0.711,0.266-1.447,0.537-2,0.832c-1.453,0.775-2.189,1.875-2.189,3.268c0,2.389,2.227,3.934,5.67,3.934
					c1.863,0,3.375-0.494,4.371-1.426c0.795,0.717,1.814,1.133,2.895,1.174c0.152,0,0.277-0.125,0.277-0.283v-0.324
					C77.154,76.605,77.055,76.482,76.914,76.459z M69.611,76.629c-1.859,0-2.887-1.049-2.887-2.955c0-1.639,1.568-3.041,3.123-3.701
					c0.842-0.357,1.807-0.783,2.648-1.248v5.209C72.496,75.521,71.311,76.629,69.611,76.629z"/>
				<path fill="#FFFFFF" d="M86.883,76.656c-0.045-0.133-0.193-0.209-0.33-0.164c-0.305,0.096-0.598,0.15-0.844,0.156h-0.057
					c-1.592,0-2.889-1.16-2.889-2.582l0.008-9.305h2.236c0.143,0,0.26-0.117,0.26-0.262v-0.449c0-0.145-0.117-0.262-0.26-0.262
					h-2.24l-0.006-6.53c0-0.297-0.344-0.55-0.617-0.385c-0.561,0.391-1.197,0.66-1.891,0.803c-0.162,0.045-0.275,0.209-0.275,0.399
					l0.018,5.712h-2.055c-0.145,0-0.26,0.117-0.26,0.262V64.5c0,0.145,0.117,0.262,0.26,0.262h2.043l-0.006,8.248
					c0,2.541,2.545,4.605,5.67,4.605c0.406,0,0.811-0.035,1.201-0.102c0.076-0.016,0.139-0.059,0.178-0.125
					c0.041-0.064,0.049-0.145,0.025-0.217L86.883,76.656z"/>
				<path fill="#FFFFFF" d="M99.1,72.369c-0.266-0.27-0.621-0.416-1-0.416c-0.764,0-1.387,0.613-1.389,1.367v0.184
					c0.002,0.256,0.002,0.695,0.002,0.771c0,1.266-1.344,2.377-2.879,2.377c-1.395,0-2.885-0.717-2.885-2.732
					c0-1.203,0.93-2.145,3.109-3.139c0.418-0.193,0.916-0.371,1.396-0.545c0.66-0.236,1.342-0.482,1.863-0.773
					c1.33-0.744,2.037-1.881,2.035-3.289c0-2.428-2.115-3.934-5.52-3.934c-3.551,0-5.67,2.033-5.67,5.438v4.641
					c0,3.08,2.385,5.311,5.67,5.311c3.063,0,5.65-1.969,5.654-4.303c0.002,0,0.002-0.006,0.002-0.006
					c0-0.008-0.002-0.01-0.002-0.016C99.488,72.953,99.35,72.621,99.1,72.369z M93.834,63.219c1.859,0,2.887,1.049,2.887,2.955
					c0,1.611-1.563,2.672-3.023,3.543c-0.508,0.299-1.076,0.582-1.625,0.855c-0.4,0.199-0.781,0.389-1.123,0.576v-4.457
					C90.949,64.645,92.135,63.219,93.834,63.219z"/>
				<path fill="#FFFFFF" d="M110.484,62.887c-0.83-0.357-1.715-0.535-2.627-0.535c-3.127,0-5.672,2.07-5.672,4.613v9.98
					c0,0.227,0.201,0.41,0.451,0.41h1.883c0.25,0,0.451-0.184,0.451-0.41V65.91c0-1.434,1.297-2.596,2.889-2.596h0.057
					c0.639,0.012,1.398,0.35,1.854,0.633c0.123,0.078,0.293,0.041,0.379-0.076c0.129-0.188,0.277-0.369,0.436-0.547
					c0.061-0.068,0.082-0.156,0.064-0.242C110.629,62.994,110.568,62.922,110.484,62.887z"/>
			</g>
		</g>
	</g>
</g>
</svg>
