<?xml version="1.0" encoding="utf-8"?>
<!-- Generator: Adobe Illustrator 16.0.2, SVG Export Plug-In . SVG Version: 6.00 Build 0)  -->
<!DOCTYPE svg PUBLIC "-//W3C//DTD SVG 1.1//EN" "http://www.w3.org/Graphics/SVG/1.1/DTD/svg11.dtd">
<svg version="1.1" id="Layer_1" xmlns="http://www.w3.org/2000/svg" xmlns:xlink="http://www.w3.org/1999/xlink" x="0px" y="0px"
	 width="199.305px" height="100.746px" viewBox="0 0 199.305 100.746" enable-background="new 0 0 199.305 100.746"
	 xml:space="preserve">
<g>
	<linearGradient id="SVGID_1_" gradientUnits="userSpaceOnUse" x1="99.1768" y1="51.3589" x2="188.1253" y2="6.5897">
		<stop  offset="0" style="stop-color:#081045"/>
		<stop  offset="0.3" style="stop-color:#0A2266"/>
		<stop  offset="0.7" style="stop-color:#0860A8"/>
		<stop  offset="1" style="stop-color:#00A0C6"/>
	</linearGradient>
	<path fill="url(#SVGID_1_)" d="M194.057,19.132c-3.762-4.143-8.885-6.424-14.43-6.424c-4.604,0-9.166,1.568-13.939,4.798
		c-1.852,1.255-3.627,2.68-5.307,4.165c-4.619-4.832-9.416-9.75-14.823-13.729C138.301,2.6,131.267,0,124.058,0
		c-8.948,0-17.312,3.21-23.546,9.034c-6.454,6.033-10.008,14.3-10.008,23.285c0,8.98,3.554,17.251,10.008,23.281
		c6.234,5.823,14.598,9.033,23.546,9.033c7.194,0,14.22-2.619,21.474-8.008c5.422-4.029,10.238-9.018,14.881-13.907
		c5.533,4.863,11.854,8.872,19.215,8.872c5.51,0,10.598-2.168,14.322-6.107c3.404-3.594,5.355-8.393,5.355-13.164
		C199.305,27.611,197.391,22.806,194.057,19.132z M146.945,36.122c-2.105,2.179-12.316,13.58-21.547,13.58
		c-10.086,0-17.691-7.1-17.691-16.514c0-9.416,7.605-16.514,17.691-16.514c5.977,0,11.551,4.107,17.219,9.246
		c4.994,4.529,9.439,8.847,12.889,12.123l-0.225,0.204C152.525,36.358,149.188,33.798,146.945,36.122z M182.645,28.493
		c-0.162,2.637-2.801,5.98-7.213,5.711c-2.588-0.158-5.557-1.432-8.609-4.525c-1.502-1.524-2.92-3.219-4.287-4.776l0.059-0.052
		c6.033,5.41,9-2.757,14.215-2.479C181.117,22.598,182.791,26.084,182.645,28.493z"/>
	<g>
		<g>
			<path fill="#545758" d="M16.865,73.11c-1.233-0.214-2.125-1.276-2.125-2.529l0.001-9.913c-0.001-3.443-3-6.04-6.976-6.04
				c-3.801,0-6.557,1.939-6.557,4.614c0,0.974,0.811,1.772,1.807,1.772c0.993,0,1.805-0.802,1.805-1.793
				c0-1.819,1.34-3.303,2.99-3.303c1.948,0,3.309,1.349,3.309,3.274v1.002c0,1.639-1.957,2.47-4.033,3.351
				c-0.5,0.21-1.054,0.416-1.638,0.63c-0.925,0.344-1.882,0.699-2.601,1.08C0.959,66.262,0,67.688,0,69.496
				c0,3.102,2.895,5.102,7.372,5.102c2.423,0,4.382-0.635,5.681-1.848c1.031,0.931,2.357,1.472,3.762,1.527
				c0.201,0,0.363-0.166,0.363-0.365v-0.425C17.178,73.301,17.045,73.142,16.865,73.11z M7.372,73.334
				c-2.421,0-3.751-1.364-3.751-3.838c0-2.128,2.036-3.942,4.054-4.803c1.096-0.463,2.353-1.014,3.444-1.622v6.765
				C11.119,71.894,9.58,73.334,7.372,73.334z"/>
			<path fill="#545758" d="M30.549,60.346c0.001,0.976,0.811,1.771,1.802,1.771c0.495,0,0.956-0.192,1.303-0.54
				c0.324-0.33,0.506-0.759,0.506-1.216c0-0.005,0-0.012,0-0.016c0-0.007,0-0.012,0-0.016c-0.006-1.528-0.799-2.945-2.235-4
				c-1.37-1.007-3.237-1.58-5.117-1.58c-4.27,0-7.371,2.898-7.371,6.89v6.19c0,3.993,3.101,6.892,7.371,6.892
				c3.983,0,7.346-2.556,7.352-5.584c0-0.002,0-0.007,0-0.009c0-0.007,0-0.014,0-0.021c0-0.455-0.182-0.885-0.506-1.215
				c-0.348-0.347-0.809-0.537-1.303-0.537c-0.992,0-1.801,0.794-1.802,1.777v0.062c0.009,0.871,0.008,1.112,0.004,1.163
				c-0.121,1.734-1.765,3.096-3.745,3.096c-2.347,0-3.748-1.695-3.748-4.533v-8.372c0-2.067,0.651-4.532,3.748-4.532
				c1.98,0,3.624,1.36,3.745,3.097c0.004,0.051,0.005,0.292-0.004,1.16V60.346z"/>
			<path fill="#545758" d="M51.293,54.7c-0.692,0-1.105,0.444-1.473,0.833c-0.313,0.332-0.582,0.617-0.963,0.617
				c-0.34,0-0.566-0.179-0.877-0.42c-0.578-0.453-1.373-1.069-3.498-1.069c-4.268,0-7.369,2.896-7.369,6.89v6.192
				c0,3.991,3.102,6.889,7.371,6.889c1.318,0,2.607-0.285,3.738-0.832v8.85c0,0.33,0.264,0.595,0.592,0.595h2.424
				c0.16,0,0.311-0.064,0.422-0.176c0.109-0.109,0.17-0.251,0.168-0.403L51.791,55.29C51.791,54.853,51.523,54.7,51.293,54.7z
				 M40.734,60.462c0-2.84,1.4-4.536,3.748-4.536c1.953,0,3.596,1.343,3.74,3.039v11.351c-0.145,1.708-1.787,3.049-3.74,3.049
				c-3.098,0-3.748-2.463-3.748-4.53V60.462z"/>
			<path fill="#545758" d="M70.563,55.177h-2.447c-0.322,0-0.586,0.235-0.586,0.527v14.316c0,1.85-1.684,3.354-3.75,3.354h-0.078
				l-0.592,0.002c-2.066-0.004-3.75-1.508-3.75-3.355V55.704c0-0.292-0.264-0.527-0.586-0.527h-2.447
				c-0.322,0-0.584,0.235-0.584,0.527V68.65c0,3.298,3.305,5.98,7.369,5.98h0.668c4.064,0,7.371-2.682,7.371-5.98V55.704
				C71.15,55.412,70.887,55.177,70.563,55.177z"/>
			<path fill="#545758" d="M90.568,73.11c-1.23-0.214-2.125-1.276-2.125-2.529l0.002-9.913c0-3.443-3-6.04-6.977-6.04
				c-3.797,0-6.557,1.939-6.557,4.614c0,0.974,0.812,1.772,1.807,1.772c0.994,0,1.807-0.802,1.807-1.793
				c0-1.819,1.342-3.303,2.99-3.303c1.947,0,3.309,1.349,3.309,3.274v1.002c0,1.639-1.959,2.47-4.036,3.351
				c-0.499,0.21-1.052,0.416-1.634,0.63c-0.924,0.344-1.884,0.699-2.602,1.08c-1.889,1.005-2.848,2.432-2.848,4.24
				c0,3.102,2.894,5.102,7.371,5.102c2.422,0,4.383-0.635,5.682-1.848c1.03,0.931,2.357,1.472,3.762,1.527
				c0.197,0,0.361-0.166,0.361-0.365v-0.425C90.881,73.301,90.75,73.142,90.568,73.11z M81.076,73.334
				c-2.42,0-3.75-1.364-3.75-3.838c0-2.128,2.035-3.942,4.055-4.803c1.095-0.463,2.35-1.014,3.443-1.622v6.765
				C84.824,71.894,83.283,73.334,81.076,73.334z"/>
		</g>
		<g>
			<path fill="#545758" d="M72.779,80.916c-1.932,0-3.773,0.713-5.078,1.949c-1.307-1.236-3.146-1.949-5.08-1.949
				c-3.795,0-6.879,2.684-6.879,5.982l0.025,12.903c0,0.325,0.268,0.593,0.594,0.593h2.396c0.326,0,0.591-0.268,0.591-0.593V85.58
				c0.006-0.016,0.008-0.036,0.008-0.054c0-1.852,1.463-3.36,3.264-3.36c1.807,0,3.275,1.509,3.275,3.36v14.333
				c0,0.291,0.264,0.535,0.588,0.535h2.445c0.324,0,0.59-0.244,0.59-0.535l-0.006-14.315c0-0.004,0.002-0.011,0.002-0.018
				c0-1.852,1.463-3.36,3.264-3.36c1.811,0,3.283,1.511,3.283,3.37v14.311c0,0.293,0.264,0.531,0.586,0.531h2.445
				c0.324,0,0.586-0.238,0.586-0.531V86.898C79.68,83.6,76.582,80.916,72.779,80.916z"/>
			<path fill="#545758" d="M99.973,99.226c-1.232-0.215-2.125-1.277-2.125-2.529l0.006-9.911c0-3.445-3.003-6.043-6.98-6.043
				c-3.799,0-6.555,1.942-6.555,4.615c0,0.978,0.809,1.774,1.807,1.774c0.994,0,1.805-0.805,1.805-1.795
				c0-1.822,1.341-3.301,2.992-3.301c1.947,0,3.309,1.349,3.309,3.273v1.007c0,1.633-1.96,2.465-4.037,3.345
				c-0.498,0.211-1.054,0.416-1.639,0.633c-0.924,0.342-1.879,0.695-2.598,1.079c-1.889,1.004-2.848,2.432-2.848,4.238
				c0,3.102,2.895,5.104,7.369,5.104c2.424,0,4.387-0.639,5.682-1.849c1.033,0.931,2.359,1.472,3.764,1.528
				c0.197,0,0.361-0.164,0.361-0.369v-0.422C100.285,99.416,100.154,99.256,99.973,99.226z M90.479,99.445
				c-2.416,0-3.75-1.357-3.75-3.834c0-2.125,2.038-3.945,4.057-4.799c1.096-0.466,2.35-1.02,3.445-1.625v6.763
				C94.23,98.009,92.688,99.445,90.479,99.445z"/>
			<path fill="#545758" d="M112.928,99.486c-0.057-0.174-0.252-0.271-0.428-0.215c-0.396,0.123-0.776,0.194-1.096,0.201h-0.074
				c-2.07,0-3.754-1.504-3.754-3.35l0.008-12.076h2.906c0.188,0,0.34-0.153,0.34-0.342v-0.582c0-0.186-0.152-0.338-0.34-0.338h-2.91
				l-0.008-8.474c0-0.385-0.447-0.712-0.802-0.5c-0.729,0.509-1.556,0.856-2.456,1.043c-0.214,0.06-0.359,0.271-0.359,0.52
				l0.023,7.412h-2.671c-0.188,0-0.339,0.153-0.339,0.338v0.582c0,0.189,0.152,0.342,0.339,0.342h2.655l-0.008,10.703
				c0,3.299,3.309,5.979,7.371,5.979c0.524,0,1.051-0.047,1.561-0.133c0.098-0.02,0.18-0.076,0.23-0.16
				c0.053-0.086,0.064-0.189,0.031-0.285L112.928,99.486z"/>
			<path fill="#545758" d="M128.808,93.919c-0.343-0.35-0.806-0.541-1.298-0.541c-0.993,0-1.805,0.797-1.805,1.775v0.236
				c0,0.332,0.002,0.904,0.002,1.004c0,1.64-1.746,3.084-3.742,3.084c-1.813,0-3.75-0.932-3.75-3.549
				c0-1.559,1.209-2.779,4.041-4.07c0.545-0.252,1.189-0.482,1.814-0.708c0.859-0.308,1.744-0.626,2.422-1.002
				c1.731-0.969,2.647-2.444,2.646-4.27c0-3.147-2.749-5.105-7.174-5.105c-4.614,0-7.369,2.64-7.369,7.059v6.021
				c0,3.996,3.098,6.893,7.369,6.893c3.98,0,7.343-2.555,7.348-5.582c0.002-0.002,0.002-0.01,0.002-0.014
				c0-0.006-0.002-0.012-0.002-0.017C129.313,94.677,129.133,94.248,128.808,93.919z M121.965,82.042c2.418,0,3.75,1.361,3.75,3.836
				c0,2.094-2.029,3.469-3.928,4.601c-0.66,0.387-1.398,0.753-2.113,1.109c-0.52,0.258-1.014,0.506-1.459,0.748v-5.786
				C118.215,83.894,119.758,82.042,121.965,82.042z"/>
			<path fill="#545758" d="M143.605,81.611c-1.078-0.461-2.227-0.695-3.416-0.695c-4.063,0-7.369,2.688-7.369,5.991v12.952
				c0,0.291,0.262,0.535,0.586,0.535h2.447c0.324,0,0.586-0.244,0.586-0.535V85.536c0-1.857,1.686-3.37,3.756-3.37h0.071
				c0.831,0.018,1.817,0.454,2.411,0.821c0.158,0.102,0.38,0.057,0.49-0.098c0.17-0.242,0.361-0.478,0.568-0.71
				c0.078-0.086,0.105-0.201,0.084-0.313C143.793,81.75,143.715,81.659,143.605,81.611z"/>
		</g>
	</g>
</g>
</svg>
